<?xml version="1.0" encoding="UTF-8"?>
<!DOCTYPE svg PUBLIC "-//W3C//DTD SVG 1.1//EN" "http://www.w3.org/Graphics/SVG/1.1/DTD/svg11.dtd">
<!-- Creator: CorelDRAW 2019 (64 Bit) -->
<svg xmlns="http://www.w3.org/2000/svg" xml:space="preserve" width="135.466mm" height="122.725mm" version="1.1" style="shape-rendering:geometricPrecision; text-rendering:geometricPrecision; image-rendering:optimizeQuality; fill-rule:evenodd; clip-rule:evenodd"
viewBox="0 0 876.73 794.27"
 xmlns:xlink="http://www.w3.org/1999/xlink">
 <defs>
  <style type="text/css">
   <![CDATA[
    .fil0 {fill:#336699}
   ]]>
  </style>
 </defs>
 <g id="Camada_x0020_1">
  <metadata id="CorelCorpID_0Corel-Layer"/>
  <g id="_2489033737264">
   <path class="fil0" d="M114.87 429.45l2.03 -4.95c0.03,-0.09 0.06,-0.19 0.09,-0.28l1.63 -4.25c0.03,-0.09 0.06,-0.19 0.09,-0.28 0.03,-0.09 0.06,-0.19 0.1,-0.27 0.03,-0.09 0.07,-0.18 0.1,-0.26 0.03,-0.08 0.08,-0.18 0.12,-0.25 0.03,-0.08 0.09,-0.17 0.13,-0.25l2.59 -5.13c0.03,-0.08 0.08,-0.17 0.12,-0.25 0.04,-0.08 0.09,-0.17 0.12,-0.25l7.78 -12.07c0.8,-1.03 -0.44,0.73 0.3,-0.44 1.95,-3.1 4.97,-5.63 7.59,-8.21l13.25 -8.81c0.08,-0.04 0.17,-0.09 0.25,-0.12l9.31 -4.3c0.08,-0.04 0.18,-0.08 0.26,-0.11l1.68 -0.53c0.09,-0.03 0.18,-0.07 0.27,-0.1 0.09,-0.03 0.18,-0.07 0.27,-0.1 0.09,-0.03 0.18,-0.07 0.27,-0.1l9.56 -2.94c0.1,-0.02 0.19,-0.05 0.29,-0.07 0.52,-0.12 0.74,-0.08 1.27,-0.2l3.51 -0.9c0.09,-0.03 0.18,-0.08 0.26,-0.11l7.62 -1.58c1.2,-0.38 1.06,-0.12 2.28,-0.3 2.69,-0.38 -0.42,-0.32 2.27,-0.67 0.83,-0.11 1.63,0.07 2.47,-0.1 1.52,-0.31 0.66,-0.54 2.28,-0.66 1,-0.08 1.41,0.12 2.42,-0.16 0.1,-0.03 0.18,-0.07 0.27,-0.1l0.51 -0.22c0.09,-0.03 0.18,-0.08 0.27,-0.11 1.52,-0.43 3.66,0.08 5.11,-0.41 1.52,-0.51 3.19,-0.24 5.02,-0.5 1.63,-0.23 1.37,-0.72 3.3,-0.74 0.89,-0.01 2.13,0.11 2.98,0.04l1.71 -0.49c0.09,-0.03 0.18,-0.08 0.27,-0.11 1.88,-0.53 4.46,0 6.35,-0.63 2.13,-0.72 4.45,0.06 7.62,-0.84 1.96,-0.56 4.37,0.03 6.35,-0.63 2.14,-0.72 5.95,0.05 7.84,-0.62l2.18 -0.4c5.74,-0.06 3.99,-0.79 7.75,-0.71 0.73,0.02 1.82,0.07 2.5,-0.08 2.43,-0.52 1.2,-0.68 4.87,-0.64 2.44,0.02 2.49,-0.76 4.74,-0.77l2.96 -0.35c1.55,-0.55 3.14,-0.16 4.76,-0.39 2.59,-0.37 -0.17,-0.2 1.93,-0.64 0.91,-0.19 1.96,0.01 2.88,-0.06l1.72 -0.49c1.49,-0.5 3.55,-0.21 5.15,-0.74 1.3,-0.43 1.31,-0.16 2.68,-0.26l1.47 -0.37c1.18,-0.42 2.11,-0.24 3.28,-0.39 2.61,-0.35 -0.18,-0.21 1.94,-0.63 0.94,-0.19 1.85,0.04 2.79,-0.15 2.12,-0.43 -0.68,-0.29 1.94,-0.63 1.11,-0.15 1.89,0.09 3.03,-0.28l38.21 -8.85c1.19,-0.41 -0.56,0.01 1.11,-0.36l1.57 -0.27c0.1,-0.03 0.18,-0.07 0.28,-0.09l17.17 -5.25c0.09,-0.03 0.19,-0.07 0.27,-0.1l1.67 -0.54c0.09,-0.03 0.18,-0.07 0.27,-0.1 0.09,-0.03 0.18,-0.07 0.27,-0.1l8.56 -2.83c0.08,-0.03 0.17,-0.08 0.25,-0.12l1.74 -0.84c0.09,-0.03 0.19,-0.06 0.28,-0.09 0.1,-0.03 0.2,-0.05 0.29,-0.08l6.74 -2.45c0.08,-0.04 0.17,-0.09 0.25,-0.12l1.95 -0.61c0.08,-0.04 0.18,-0.07 0.26,-0.11l18.87 -7.97c1.12,-0.57 -0.64,0.33 0.49,-0.25 0.3,-0.15 0.68,-0.34 0.98,-0.49l34.07 -17.03c0.08,-0.04 0.18,-0.08 0.25,-0.12l0.96 -0.51c0.07,-0.05 0.16,-0.11 0.22,-0.15l23.58 -14.29c0.58,-0.32 0.41,-0.22 0.89,-0.58 0.37,-0.27 0.63,-0.51 0.83,-0.64l4.41 -2.94c0.07,-0.05 0.16,-0.1 0.23,-0.14l0.93 -0.54c0.07,-0.05 0.15,-0.12 0.21,-0.16 0.42,-0.3 0.6,-0.48 0.84,-0.63l12.72 -8.96c0.07,-0.04 0.17,-0.09 0.24,-0.13 0.07,-0.05 0.17,-0.09 0.24,-0.13l3.8 -2.81c0.08,-0.07 0.32,-0.27 0.4,-0.33l2.73 -2.04c1.02,-0.81 -0.72,0.43 0.43,-0.3l2.13 -1.55c0.2,-0.19 0.48,-0.44 0.58,-0.52 0.07,-0.05 0.16,-0.1 0.23,-0.14 1.6,-1.02 2.38,-2.13 3.68,-2.94l4.13 -2.86c0.16,-0.11 0.62,-0.54 0.78,-0.69l5.62 -4.67c0.01,-0.01 0.48,-0.25 0.49,-0.25 1.65,-0.96 2.84,-2.67 4.65,-3.81 0.07,-0.04 0.16,-0.1 0.23,-0.14l3.22 -3.02c2.06,-1.29 3.19,-3.19 5.15,-4.41l7.65 -6.32c1.02,-1.04 1.82,-1.82 2.76,-2.76l17.46 -15.99c2.24,-2.24 16.66,-16.06 17.94,-18.09 2.94,-4.68 8.19,-7.84 11.47,-12.06l1.11 -1.84c0.6,-0.79 1.3,-1.63 2.39,-2.02l-1.74 6.35c-0.03,0.09 -0.07,0.18 -0.1,0.27 -0.03,0.09 -0.08,0.18 -0.1,0.26 -0.03,0.1 -0.07,0.18 -0.1,0.28l-1.9 8.76c-0.52,1.61 -0.22,3.41 -0.63,4.88 -0.03,0.09 -0.07,0.18 -0.1,0.27l-0.22 0.51c-0.68,2.01 -0.03,5.42 -0.62,7.1 -0.5,1.41 -0.36,3.54 -0.37,5.15 -0.03,3.47 0.59,3.26 0.76,5.13 0.15,1.75 -0.33,3.72 0.14,5.37 0.03,0.09 0.07,0.18 0.1,0.27l0.5 3.54c0.3,2.25 0.24,0.03 0.62,1.95l1.65 7.17c0.37,1.68 -0.05,-0.08 0.36,1.11l2.23 5.86c0.04,0.09 0.07,0.18 0.1,0.27 0.17,0.51 0.15,0.64 0.32,1.15l4.74 9.59c0.04,0.08 0.09,0.17 0.12,0.25l1.11 2.2c0.04,0.07 0.11,0.16 0.15,0.22l7.55 10.83c0.09,0.15 0.17,0.34 0.25,0.48l2.46 2.68c0.15,0.15 0.58,0.63 0.69,0.78l0.8 1.41c1.33,1.92 12.34,12.54 13.09,13.01 2.26,1.41 3.75,3.24 5.13,4.05l0.46 0.27c0.17,0.12 0.63,0.54 0.78,0.69l2.67 2.11c0.07,0.05 0.17,0.1 0.23,0.14l1.99 1.69c0.41,0.25 0.25,0.1 0.71,0.39l8.85 6.22c0.04,0.02 0.44,0.23 0.48,0.26l3.69 2.19c0.53,0.31 0.14,0.07 0.65,0.45 0.36,0.28 0.65,0.53 0.82,0.65l24.99 13.24c0.08,0.04 0.17,0.09 0.25,0.12 0.16,0.08 0.33,0.17 0.49,0.25l8.32 3.81c0.11,0.05 0.41,0.18 0.51,0.22 0.09,0.03 0.19,0.07 0.28,0.1l5.1 1.88c0.09,0.04 0.18,0.08 0.26,0.11l1.46 0.75c0.08,0.04 0.18,0.07 0.26,0.11l1.69 0.51c0.09,0.04 0.18,0.08 0.26,0.11l1.99 0.95c0.09,0.03 0.19,0.06 0.28,0.08l29.81 9.89c0.09,0.03 0.18,0.07 0.27,0.1l10 2.87c0.89,0.31 -0.35,0.1 1.1,0.37l11.42 2.56c1.04,0.33 -0.66,0.04 1.09,0.38l7.06 1.4c1.52,0.4 4.97,0.69 7.08,1.37 1.33,0.43 2.63,0.09 3.9,0.51 1.56,0.51 3.73,0.26 5.15,0.73 1.04,0.35 -0.68,0.05 1.07,0.41 0.53,0.11 0.86,0.08 1.39,0.08 0,-1.6 -0.01,-3.19 0.01,-4.79 0.03,-3.28 -0.7,-3.11 -0.72,-7 -0.01,-2.32 -0.77,-2.14 -0.78,-4.37 -0.02,-4.27 -0.28,-2.76 -0.64,-4.51 -0.17,-0.84 0.01,-1.65 -0.1,-2.47 -0.34,-2.62 -0.2,0.18 -0.63,-1.94l-0.97 -6.74c-0.03,-0.1 -0.07,-0.18 -0.1,-0.27 -0.13,-0.41 -0.37,-0.31 -0.48,-1.73 -0.08,-1 0.12,-1.41 -0.15,-2.42 -0.03,-0.09 -0.07,-0.18 -0.1,-0.27 -0.03,-0.12 -0.18,-0.41 -0.21,-0.52l-1.64 -7.18c-0.03,-0.11 -0.03,-0.21 -0.06,-0.31l-0.95 -4.19c-0.03,-0.1 -0.07,-0.19 -0.1,-0.28l-1.76 -6.69c-0.18,-0.66 -0.1,-0.64 -0.22,-1.25l-1.98 -6.84c-0.14,-0.42 -0.21,-0.7 -0.35,-1.12l-4.7 -14.04c-0.03,-0.09 -0.07,-0.19 -0.1,-0.27l-2.12 -5.6c-0.24,-0.64 -0.14,-0.5 -0.33,-1.14l-3.12 -7.91c-0.03,-0.09 -0.07,-0.18 -0.11,-0.26 -0.04,-0.08 -0.08,-0.17 -0.12,-0.25 -0.04,-0.08 -0.09,-0.17 -0.13,-0.24 -0.01,-0.03 -0.25,-0.44 -0.26,-0.47l-2.56 -5.89c-0.04,-0.08 -0.09,-0.17 -0.13,-0.24l-2.82 -6.38c-0.12,-0.23 -0.22,-0.43 -0.37,-0.74l-1.96 -3.92c-0.05,-0.1 -0.19,-0.39 -0.24,-0.49 -0.04,-0.08 -0.09,-0.17 -0.13,-0.24 -0.34,-0.68 0.1,0.19 -0.24,-0.49l-1.23 -2.45c-0.03,-0.08 -0.09,-0.17 -0.12,-0.25 -0.03,-0.08 -0.09,-0.17 -0.12,-0.25l-3.67 -6.63c-0.05,-0.07 -0.1,-0.16 -0.14,-0.23l-6.99 -12.49c-0.04,-0.07 -0.11,-0.16 -0.15,-0.22l-1.08 -1.49c-0.04,-0.08 -0.08,-0.17 -0.12,-0.25l-0.23 -0.5c-0.04,-0.08 -0.08,-0.18 -0.12,-0.25 -0.04,-0.08 -0.08,-0.18 -0.12,-0.25l-4.28 -6.38c-0.05,-0.07 -0.1,-0.16 -0.14,-0.23l-1.33 -1.97c-0.05,-0.07 -0.1,-0.16 -0.14,-0.23l-1.33 -1.97c-0.05,-0.07 -0.1,-0.16 -0.14,-0.23l-1.73 -2.68c-0.04,-0.07 -0.09,-0.16 -0.14,-0.23 -0.04,-0.07 -0.1,-0.16 -0.15,-0.22l-7.06 -9.84c-0.04,-0.07 -0.09,-0.17 -0.13,-0.24l-4.76 -5.89c-0.88,-1.5 -2.24,-2.46 -3.07,-3.92l-3.93 -4.89c-0.04,-0.07 -0.1,-0.16 -0.14,-0.23 -1.26,-1.81 -3.51,-3.03 -4.62,-4.93 -1.96,-3.35 -20.25,-20.64 -24.57,-25.06l-6.69 -5.81c-0.07,-0.04 -0.17,-0.09 -0.24,-0.13l-1.55 -1.03c-2.14,-2 -2.49,-2.61 -4.33,-3.77 -1.1,-0.69 -1.81,-1.89 -2.95,-2.56l-5.75 -4.55c-0.08,-0.07 -0.32,-0.27 -0.41,-0.33l-18.11 -12.77c-0.04,-0.03 -0.44,-0.24 -0.48,-0.26l-1.49 -1.08c-0.41,-0.26 -0.21,-0.14 -0.72,-0.39l-6.89 -4.14c-0.1,-0.05 -0.39,-0.2 -0.48,-0.25 -0.52,-0.31 -0.14,-0.07 -0.65,-0.45l-1.54 -1.04c-0.08,-0.04 -0.18,-0.08 -0.25,-0.12l-21.82 -12c-0.1,-0.05 -0.39,-0.2 -0.49,-0.25l-0.49 -0.25c-0.08,-0.03 -0.17,-0.09 -0.25,-0.12 -0.08,-0.04 -0.17,-0.09 -0.25,-0.12l-4.65 -2.34c-0.08,-0.04 -0.17,-0.09 -0.24,-0.13l-5.4 -2.32c-0.08,-0.04 -0.17,-0.09 -0.24,-0.13 -0.08,-0.04 -0.17,-0.09 -0.25,-0.12l-4.04 -1.84c-0.52,-0.16 -0.29,-0.05 -0.85,-0.26l-10.81 -4.63c-0.61,-0.24 -0.49,-0.15 -1.13,-0.34l-9.18 -3.32c-0.09,-0.03 -0.18,-0.07 -0.27,-0.1l-4.41 -1.47c-0.09,-0.03 -0.19,-0.06 -0.28,-0.09 -0.47,-0.16 -0.75,-0.23 -1.12,-0.36l-0.81 -0.29c-0.42,-0.14 -0.7,-0.21 -1.12,-0.35l-3.85 -1.29c-0.39,-0.13 -0.55,-0.17 -0.84,-0.27l-22.87 -6.17c-0.1,-0.03 -0.19,-0.06 -0.29,-0.08 -0.11,-0.03 -0.21,-0.03 -0.31,-0.06l-16.5 -3.35c-1.34,-0.47 -2.57,-0.17 -3.89,-0.52l-7.89 -1.3c-0.28,-0.01 -0.81,0 -1.07,-0.03 -2.23,-0.31 -0.02,-0.24 -1.93,-0.64 -0.45,-0.1 -0.92,-0.1 -1.37,-0.1 -0.74,-0.01 -1.88,0.11 -2.58,0.01 -2.57,-0.37 0.15,-0.2 -1.93,-0.64 -1.41,-0.3 -3.6,0.16 -5,-0.15 -2.08,-0.45 0.64,-0.27 -1.93,-0.64 -0.59,-0.09 -1.9,-0.03 -2.55,-0.02 -7.06,0.07 -4.7,-0.78 -9.56,-0.74 -5.04,0.05 -11.32,0.75 -15.97,-0.58 -1.75,-0.49 -4.85,-0.47 -6.57,0.1 -0.05,0.02 -0.47,0.21 -0.51,0.23 -0.77,0.26 -0.11,0.18 -1.2,0.27 -4.8,0.42 -13.85,-0.6 -18.01,0.01 -2.92,0.43 0.2,0.78 -7,0.72 -3.84,-0.04 -2.8,0.3 -4.48,0.66 -1.18,0.26 -3.43,-0.01 -4.73,0.05 -0.39,0.02 -0.61,0.02 -1,0.1 -1.51,0.33 -1.5,0.7 -3.36,0.68 -0.76,-0.01 -1.9,-0.1 -2.61,-0.04 -0.6,0.05 -0.41,0.02 -0.94,0.17l-1.04 0.43c-1.81,0.51 -3.8,0.03 -5.62,0.63 -1.3,0.43 -2.99,0.26 -4.41,0.74 -1.14,0.38 -3.53,0.15 -4.64,0.51l-3.4 0.64c-0.98,0.26 -0.28,0.44 -2,0.57 -1,0.08 -1.41,-0.12 -2.42,0.16 -0.09,0.03 -0.18,0.07 -0.27,0.1l-28.09 6.46c-0.11,0.03 -0.2,0.05 -0.3,0.07 -0.1,0.03 -0.19,0.06 -0.28,0.09l-1.08 0.39c-0.42,0.14 -0.82,0.27 -1.1,0.36l-0.53 0.2c-0.1,0.03 -0.19,0.06 -0.28,0.09l-34.99 12.07c-0.08,0.04 -0.17,0.09 -0.24,0.13l-11.76 5.15c-0.11,0.05 -0.41,0.18 -0.52,0.22l-23.52 11.77c-0.28,0.14 -0.7,0.35 -0.98,0.49l-10.77 6.51c-0.08,0.04 -0.18,0.08 -0.25,0.12l-4.09 2.52c-0.42,0.31 -0.6,0.48 -0.84,0.63l-28.16 20.73c-0.42,0.25 -0.25,0.09 -0.73,0.38 -1.38,0.87 -2.05,2.29 -3.45,3.17l-0.96 0.51c-1.18,0.74 -2.25,2.1 -3.2,3.05 -4.63,4.64 -3.18,2.75 -5.52,4.77 -2.76,2.38 -5.15,5.18 -7.71,7.73l-7.34 8.1c-1.47,1.43 -3.29,2.8 -4.3,4.53l-1.78 2.27c-0.98,0.96 -1.94,1.7 -2.63,2.88 -0.04,0.07 -0.09,0.17 -0.13,0.25l-2.39 2.76c-0.8,1.03 0.44,-0.73 -0.3,0.44l-9.26 12.07c-0.43,0.53 -0.11,0.12 -0.43,0.67 -0.05,0.07 -0.09,0.17 -0.13,0.24l-6.62 9.93c-0.32,0.43 -0.24,0.27 -0.47,0.63l-5.9 9.55c-0.14,0.28 -0.33,0.69 -0.51,0.96l-4.77 8.1c-0.15,0.3 -0.26,0.52 -0.37,0.73l-1.71 3.43c-0.14,0.28 -0.35,0.7 -0.49,0.98l-1.21 2.47c-0.32,0.58 -0.22,0.4 -0.58,0.89 -1.76,2.35 -2.42,5.09 -3.72,7.67 -0.08,0.16 -0.17,0.33 -0.24,0.49l-8.88 20.53c-0.03,0.09 -0.07,0.19 -0.1,0.27 -0.03,0.09 -0.07,0.19 -0.1,0.27 -0.03,0.09 -0.07,0.18 -0.1,0.27l-0.18 0.55c-0.03,0.09 -0.06,0.19 -0.09,0.28l-4.24 11.94c-0.03,0.09 -0.06,0.19 -0.09,0.28 -0.16,0.47 -0.23,0.75 -0.36,1.12l-0.29 0.81c-0.14,0.42 -0.21,0.7 -0.35,1.12l-2.2 7.36c-0.03,0.1 -0.06,0.19 -0.09,0.28 -0.03,0.09 -0.07,0.18 -0.1,0.27l-1.37 4.88c-0.03,0.12 -0.16,0.42 -0.2,0.53l-2.38 8.64c-0.1,0.44 -0.07,0.57 -0.15,0.96l-1.9 8.02c-0.65,2.14 -0.62,4.83 -1.25,6.84l-1.25 6.47c-0.24,1.71 -0.64,1.47 -0.7,3.35 -0.07,2.34 -0.67,2.15 -0.74,4.41 -0.07,2.32 -0.75,2.14 -0.76,4.39 -0.02,4.27 -0.28,2.76 -0.63,4.51l-0.33 3.34c-0.72,2.17 -0.06,5.06 -0.63,7.09l-0.32 0.78c-0.55,1.63 -0.03,3.56 -0.28,5.24 -0.42,2.93 -0.78,-0.17 -0.71,7 0.03,3.85 -0.31,2.8 -0.67,4.48 -0.84,3.91 0.7,9.91 -0.15,13.82 -0.37,1.73 -0.07,0.07 -0.4,1.07 -0.8,2.36 -0.24,20.89 -0.26,25.47l0.07 3.61c0.37,1.73 0.07,0.07 0.41,1.06 1.45,4.32 -0.65,10.54 0.33,15.11 0.45,2.08 0.27,-0.64 0.64,1.93 0.09,0.61 0.02,1.87 0.02,2.55z"/>
   <path class="fil0" d="M61.19 280.2c-0.5,0 -0.92,-0.04 -1.41,0.07 -1.66,0.33 -4.31,1.95 -5.96,2.86 -0.58,0.32 -0.41,0.22 -0.89,0.58 -0.36,0.27 -0.65,0.53 -0.82,0.64l-1.96 0.98c-0.58,0.32 -0.41,0.23 -0.89,0.58l-5.9 4.4c-1.48,1.15 -2.77,3.27 -4.48,4.34 -0.91,0.56 -1.83,1 -2.44,1.97l-5.52 6.61c-0.04,0.07 -0.09,0.17 -0.13,0.24l-4.15 5.4c-0.04,0.07 -0.09,0.17 -0.13,0.24l-3.38 5.07c-1.79,2.44 -3.46,5.7 -4.82,8.41l-0.49 0.98c-0.23,0.46 -0.07,0.14 -0.25,0.49 -0.05,0.1 -0.19,0.39 -0.24,0.49l-0.98 1.96c-0.03,0.07 -0.09,0.17 -0.12,0.24 -0.04,0.08 -0.09,0.17 -0.13,0.25l-0.5 0.97c-0.04,0.07 -0.09,0.16 -0.13,0.24l-1.83 4.43c-0.04,0.07 -0.09,0.17 -0.13,0.24l-0.93 2.38c-0.03,0.1 -0.06,0.2 -0.09,0.29 -0.03,0.09 -0.06,0.19 -0.1,0.27l-1.77 4.47c-0.14,0.42 -0.21,0.7 -0.35,1.12l-0.29 0.81c-0.03,0.09 -0.07,0.18 -0.1,0.27l-1.82 5.53c-0.03,0.09 -0.07,0.19 -0.1,0.27l-0.65 1.93c-0.03,0.09 -0.07,0.18 -0.1,0.27l-3.24 12.57c-0.22,0.85 -0.09,0.85 -0.18,1.66 -0.16,1.59 -0.34,0.77 -0.64,2.3l-0.55 3.86c-0.39,1.17 -0.11,2.66 -0.51,3.9l-0.96 6.4c-0.26,0.77 -0.18,0.11 -0.27,1.2 -0.16,1.81 0.33,4.04 -0.06,5.82 -0.33,1.5 -0.54,0.67 -0.68,2.27 -0.23,2.66 -0.29,25.34 0.38,27.22l0.39 1.81c0.07,1.55 -0.06,4.42 0.34,5.54 0.38,1.08 0.17,4.03 0.39,5.5 0.39,2.69 0.33,-0.46 0.69,2.25 0.14,1.05 -0.12,1.68 0.18,2.76l2.52 11.82c0.03,0.09 0.07,0.18 0.1,0.28 0.79,2.92 1.22,5.96 2.2,8.83l0.75 2.2c0.03,0.09 0.06,0.19 0.09,0.28 0.03,0.09 0.06,0.19 0.09,0.28l0.37 1.1c0.03,0.09 0.07,0.18 0.1,0.27l0.44 1.39c0.03,0.09 0.07,0.18 0.1,0.27l4 11.07c0.05,0.1 0.2,0.38 0.25,0.48l4.42 9.56c0.04,0.08 0.09,0.17 0.12,0.25l1.06 1.88c1.35,1.8 1.94,3.74 3.27,5.55l0.57 0.9c0.04,0.07 0.09,0.17 0.13,0.24l0.44 0.66c1.08,1.47 1.73,3.16 2.93,4.43l2.64 3.98c0.76,1.2 -0.53,-0.62 0.3,0.44l2.64 3.24c1.35,2.16 4.98,5.12 6.73,6.87 1.43,1.42 2.79,3.26 4.54,4.29l2.48 1.93c0.07,0.05 0.16,0.1 0.23,0.14l2.31 1.73c0.08,0.07 0.32,0.27 0.4,0.33 0.07,0.05 0.16,0.1 0.23,0.14 0.07,0.05 0.17,0.09 0.24,0.13l0.71 0.39c0.07,0.04 0.16,0.1 0.22,0.15l1.74 1.19c0.08,0.04 0.18,0.08 0.25,0.12l1.48 0.73c0.08,0.04 0.17,0.08 0.24,0.12l0.49 0.25c0,0 0.48,0.24 0.49,0.24l0.49 0.25c0.08,0.04 0.17,0.09 0.25,0.12l0.74 0.37c0.08,0.04 0.17,0.09 0.25,0.13l1.47 0.74c0.08,0.04 0.17,0.08 0.24,0.12l3.2 1.58c0.09,0.04 0.19,0.07 0.27,0.1l5.71 1.65c1.12,0.3 0.7,-0.32 1.12,0.72 1.14,0.46 0.68,0.86 1.11,2.2l0.19 0.54c0.03,0.1 0.06,0.19 0.09,0.28l6.57 16.59c0.15,0.3 0.29,0.55 0.38,0.73 0.04,0.08 0.09,0.17 0.12,0.24l0.25 0.49c0.15,0.3 0.25,0.51 0.37,0.74 0.04,0.08 0.09,0.17 0.13,0.25 0.03,0.08 0.09,0.17 0.12,0.24l4.41 9.56c0.1,0.21 0.23,0.45 0.37,0.74 0.04,0.08 0.09,0.17 0.12,0.24l2.45 5.64c0.04,0.08 0.09,0.17 0.12,0.25l6.98 13.23c0.03,0.08 0.08,0.17 0.12,0.25 0.03,0.08 0.08,0.18 0.12,0.25l1.98 3.17c0.05,0.1 0.19,0.39 0.24,0.49l12.17 20.18c0.38,0.51 0.14,0.13 0.45,0.65l10.28 15.46c0.04,0.07 0.09,0.17 0.13,0.24l0.26 0.48c0.04,0.07 0.1,0.16 0.14,0.23l1.55 1.75c0.31,0.49 0.13,0.3 0.38,0.73 0.33,0.56 0,0.13 0.43,0.67l9.13 11.83c0.33,0.56 0.01,0.14 0.43,0.68l2.51 3c0.75,1.29 1.97,1.96 2.69,3.19l4.28 4.9c0.05,0.07 0.09,0.17 0.13,0.24l0.38 0.72c0.96,1.53 2.75,2.77 3.98,4.1l0.65 0.83c0.05,0.07 0.09,0.17 0.13,0.24 0.04,0.07 0.09,0.17 0.13,0.24 0.04,0.07 0.09,0.17 0.13,0.24 0.04,0.07 0.09,0.17 0.13,0.24l7.46 7.61c0.12,0.12 0.31,0.28 0.56,0.54l11.19 11.97c0.11,0.09 0.44,0.35 0.63,0.47 3.58,2.25 6.27,5.76 9.29,8.73 1.28,1.26 2.13,1.29 5.52,4.77 1.38,1.42 2.46,1.69 5.32,4.6l1.19 1.02c0.55,0.35 0.41,0.17 0.96,0.51 1.17,0.74 1.8,1.89 2.95,2.56 0.42,0.25 0.25,0.08 0.73,0.38 1.17,0.74 1.8,1.89 2.95,2.56l5.57 4.36c0.2,0.19 0.48,0.44 0.58,0.51l6.35 4.69c0.07,0.04 0.17,0.09 0.24,0.13 0.07,0.04 0.17,0.09 0.24,0.13 0.07,0.04 0.17,0.09 0.24,0.14 0.07,0.04 0.16,0.1 0.22,0.15l4.45 3.27c0.07,0.04 0.17,0.09 0.24,0.13l0.46 0.28c0.01,0.01 0.42,0.35 0.61,0.49 0.06,0.05 0.15,0.12 0.21,0.16 0.07,0.05 0.16,0.11 0.22,0.15l26.03 16.61c0.51,0.38 0.13,0.14 0.65,0.45 0.05,0.03 0.71,0.36 0.74,0.37 0.08,0.04 0.17,0.08 0.25,0.12 0.08,0.04 0.17,0.08 0.25,0.12l16.16 8.83c0.21,0.1 0.45,0.22 0.73,0.37 0.08,0.04 0.17,0.09 0.25,0.12 0.68,0.34 -0.19,-0.1 0.49,0.25 0.21,0.1 0.45,0.22 0.74,0.37 0.08,0.04 0.17,0.09 0.25,0.12l3.43 1.72c0.08,0.04 0.17,0.09 0.25,0.12l4.17 2.08c0.07,0.04 0.17,0.09 0.24,0.12 0.29,0.14 0.53,0.26 0.74,0.37l1.47 0.74c0.08,0.04 0.17,0.09 0.25,0.12l11.77 5.14c0.08,0.03 0.18,0.08 0.25,0.12 0.08,0.04 0.17,0.09 0.25,0.12 0.31,0.15 0.53,0.28 0.73,0.38l1.45 0.75c0.68,0.31 -0.01,0.05 0.79,0.31 0.42,0.15 0.48,0.12 0.87,0.24l2.52 1.15c0.08,0.04 0.17,0.09 0.24,0.13l0.98 0.49c0.08,0.03 0.18,0.07 0.26,0.11l0.55 0.18c0.34,0.11 0.49,0.13 0.85,0.25 0.09,0.03 0.19,0.07 0.27,0.1l2.48 0.83c0.08,0.04 0.18,0.08 0.25,0.12l10.12 3.85c0.34,0.11 0.5,0.14 0.85,0.26l27.94 8.82c6.11,1.65 12.4,2.87 18.44,4.72l14.19 2.72c0.78,0.25 -0.42,0.31 1.73,0.48 2.8,0.21 2.35,0.48 4.07,0.71l3.29 0.39c0.08,0.03 0.17,0.08 0.25,0.11 0.09,0.03 0.18,0.08 0.27,0.1 1.62,0.45 3.24,0.09 4.88,0.63 2.76,0.92 4.14,-0.88 4.89,0.99l5.15 0 2.23 2.54c0.07,0.05 0.16,0.1 0.23,0.14l3.44 2.8c0.07,0.05 0.16,0.11 0.22,0.15 0.07,0.05 0.17,0.1 0.24,0.14l4.9 2.45c0.08,0.03 0.17,0.09 0.24,0.12l1.65 0.56c0.09,0.03 0.19,0.06 0.28,0.09l1.08 0.39c0.09,0.03 0.19,0.06 0.28,0.09 4.12,1.36 7.38,0.91 12.44,0.85 2,-0.03 2.08,-0.34 3.84,-0.94l7.42 -3.25c0.08,-0.04 0.17,-0.08 0.25,-0.12l2.47 -1.94c0.07,-0.05 0.16,-0.1 0.23,-0.14l5.02 -4.91c1.25,-2.09 2.77,-3.85 3.81,-6.12l2.7 -14.62c-0.05,-1.1 -1.34,-6.67 -2.1,-8.19l-3.46 -6.83 -2.73 -2.78c-1.1,-1.1 -1.85,-1.83 -2.94,-2.94l-3.33 -2.56c-0.48,-0.36 -0.31,-0.27 -0.89,-0.58l-7.17 -2.75c-3.86,-1.01 -8.9,-1.74 -12.97,-0.44l-1.84 0.36c-0.1,0.03 -0.2,0.05 -0.3,0.08l-4.69 1.55c-2.2,0.81 -3.9,2.42 -5.88,3.68 -1.21,0.77 0.64,-0.54 -0.44,0.3 -1.13,0.88 -2.97,2.42 -3.49,3.86l-2.94 0c-0.39,-0.95 0.03,-0.53 -1.1,-0.74 -0.39,-0.08 -1.74,0.03 -2.23,0.03 -3.18,-0.08 -0.41,-0.63 -3.65,-0.76 -1.73,-0.07 -2.16,-0.5 -3.71,-0.7l-20.67 -3.96c-1.81,-0.55 -2.56,-0.98 -4.69,-1.19l-2.21 -0.36c-0.09,-0.03 -0.18,-0.08 -0.27,-0.11l-10 -2.87c-0.09,-0.03 -0.18,-0.08 -0.27,-0.1 -0.1,-0.03 -0.19,-0.06 -0.28,-0.09 -0.57,-0.15 -0.43,-0.08 -0.94,-0.17l-5.33 -1.65c-0.09,-0.03 -0.18,-0.07 -0.27,-0.1l-16.25 -5.44c-0.09,-0.03 -0.19,-0.06 -0.28,-0.09 -0.34,-0.11 -0.49,-0.13 -0.85,-0.25l-8.15 -3.24c-0.09,-0.03 -0.18,-0.07 -0.27,-0.1l-1.95 -0.62c-0.09,-0.03 -0.18,-0.07 -0.27,-0.1l-4.1 -1.78c-0.08,-0.03 -0.17,-0.09 -0.24,-0.12l-5.16 -2.2c-0.08,-0.03 -0.17,-0.09 -0.25,-0.12l-0.48 -0.25c-0.07,-0.03 -0.72,-0.37 -0.73,-0.37l-14.72 -6.61c-0.08,-0.04 -0.17,-0.08 -0.25,-0.12l-1.72 -0.86c-0.08,-0.04 -0.17,-0.09 -0.24,-0.13l-1.97 -0.97c-0.07,-0.04 -0.16,-0.1 -0.23,-0.14l-3.93 -2.32c-0.08,-0.03 -0.17,-0.09 -0.25,-0.12l-0.98 -0.49c-0.08,-0.04 -0.17,-0.08 -0.25,-0.12 -0.08,-0.03 -0.17,-0.09 -0.25,-0.12l-15.44 -8.82c-2.05,-0.99 -3.58,-2.58 -5.63,-3.56l-14.88 -9.74c-0.56,-0.45 -0.3,-0.3 -0.55,-0.55l-1.23 -0.98c-0.41,-0.25 -0.25,-0.1 -0.71,-0.39l-4.43 -3.28c-2.24,-1.32 -4.12,-3.35 -6.37,-4.66l-4.92 -3.9c-0.03,-0.03 -0.41,-0.43 -0.53,-0.57l-7.28 -5.95c-1.59,-1 -2.44,-2.7 -3.96,-3.76 -0.07,-0.05 -0.16,-0.1 -0.23,-0.14l-1.19 -0.65c-2.13,-1.48 -5.02,-4.92 -7,-6.96l-2.33 -1.72c-0.07,-0.04 -0.16,-0.1 -0.23,-0.14 -0.09,-0.07 -0.4,-0.33 -0.59,-0.51l-2.19 -2.22c-1.83,-1.83 -6.84,-6.16 -8.15,-8.39 -0.25,-0.42 -0.08,-0.25 -0.38,-0.72l-1.4 -1.54c-0.32,-0.31 -0.36,-0.36 -0.55,-0.55l-4.97 -4.97c-0.18,-0.17 -0.55,-0.52 -0.56,-0.53 -0.28,-0.29 -0.11,-0.02 -0.53,-0.57 -0.42,-0.54 -0.1,-0.12 -0.43,-0.67l-1.4 -1.91c-0.26,-0.26 -0.44,-0.43 -0.56,-0.54l-1.66 -1.65c-1.52,-1.48 -2.44,-3.18 -4.05,-4.77l-8.07 -10.31c-0.45,-0.47 -0.69,-0.63 -1.03,-1.17l-11.89 -16.41c-0.05,-0.07 -0.09,-0.17 -0.13,-0.24l-0.41 -0.69c-0.01,-0.02 -0.35,-0.42 -0.49,-0.61l-2.61 -4.01c-0.15,-0.2 -0.48,-0.58 -0.49,-0.6l-11.44 -19.08c-0.04,-0.08 -0.09,-0.17 -0.12,-0.24l-1.47 -2.95c-0.04,-0.07 -0.1,-0.16 -0.14,-0.23l-7.96 -15.21c-0.04,-0.08 -0.08,-0.17 -0.12,-0.24l-7.72 -16.9c-0.03,-0.06 -0.37,-0.72 -0.38,-0.73l-1.58 -3.93c-0.04,-0.08 -0.08,-0.18 -0.11,-0.26l-3.85 -10.12c-0.13,-0.39 -0.11,-0.45 -0.25,-0.86l-1.58 -3.94c-0.03,-0.09 -0.07,-0.18 -0.1,-0.27l-2.75 -8.28c-0.03,-0.09 -0.07,-0.18 -0.1,-0.27l-2.95 -9.55c-0.03,-0.09 -0.07,-0.18 -0.1,-0.27l-0.52 -2.42c-0.02,-0.1 -0.06,-0.19 -0.09,-0.28l-1.39 -4.86c-0.03,-0.1 -0.07,-0.18 -0.09,-0.28l-3.67 -15.45c-0.03,-0.09 -0.08,-0.17 -0.11,-0.26l-0.86 -3.19c-0.34,-1.12 -0.15,-0.75 -0.27,-1.94 -0.21,-2.03 -0.23,-0.98 -0.46,-1.74 -0.66,-2.11 -0.74,-6.01 -1.25,-7.57 -0.26,-0.79 -0.32,0.45 -0.48,-1.73l-0.73 -5.52c-0.13,-3.22 -0.66,-0.47 -0.76,-3.65l-0.56 -3.85c-0.37,-1.32 -0.07,-2.89 -0.13,-4.29 -0.13,-3.18 -0.65,-0.44 -0.79,-3.62 -0.06,-1.51 0.2,-4.02 -0.23,-5.29 -0.03,-0.09 -0.08,-0.17 -0.11,-0.26 -0.87,-2.43 -0.07,-6.04 -0.85,-8.34 -1.37,-4.08 0.9,-12.94 -0.51,-17.13 -0.68,-2.03 -0.48,-3.58 -0.48,-6.14 0,-2.62 -0.52,-6.28 0.25,-8.57 0.34,-1.02 0.16,0.72 0.46,-1.38 0.77,-5.25 -1.15,-11.88 0.5,-16.78 0.03,-0.09 0.08,-0.18 0.1,-0.27 0.56,-1.97 0.04,-4.47 0.13,-6.49 0.14,-3.17 0.65,-0.45 0.79,-3.62 0.06,-1.27 -0.19,-3.23 -0.01,-4.42 0.29,-1.99 0.73,-1.25 0.74,-3.3l0.46 -3.95c0.52,-1.55 0.01,-2.58 0.33,-4.08 0.45,-2.16 0.14,0.54 0.59,-1.62 0.15,-0.7 0.06,-1.44 0.06,-2.15 0.01,-1.18 -0.04,-1 0.27,-1.94l1.86 -9.16c0.16,-0.76 0.03,-1.27 0.18,-2.03l1.74 -8.18c0.03,-0.09 0.08,-0.17 0.11,-0.26l2.38 -10.13c0.1,-0.44 0.07,-0.56 0.14,-0.96l2.33 -8.7c0.03,-0.1 0.06,-0.19 0.09,-0.28 0.04,-0.12 0.17,-0.42 0.2,-0.53 0.06,-0.18 0.17,-0.5 0.28,-0.83l1.19 -4.32c0.03,-0.09 0.07,-0.18 0.1,-0.27l1.48 -4.41c0.12,-0.35 0.15,-0.5 0.26,-0.85l10.47 -28.5c0.05,-0.1 0.18,-0.4 0.22,-0.51l5.52 -12.49c0.04,-0.08 0.09,-0.17 0.13,-0.24l1.06 -2.25c0.14,-0.42 0.12,-0.48 0.24,-0.87l2.62 -5.47c0.43,-0.85 -0.35,0.7 0.25,-0.49l0.86 -1.72c0.04,-0.08 0.09,-0.17 0.13,-0.24l7.43 -13.52c0.05,-0.06 0.11,-0.15 0.15,-0.22 0.05,-0.07 0.1,-0.16 0.14,-0.23l0.25 -0.48c0.04,-0.08 0.08,-0.18 0.12,-0.25l1.2 -2.47c0.04,-0.07 0.09,-0.17 0.13,-0.24l3.3 -5.15c0.26,-0.41 0.14,-0.21 0.39,-0.71l6.31 -10.23c0.07,-0.09 0.27,-0.32 0.33,-0.4l0.3 -0.43c0.05,-0.07 0.1,-0.17 0.14,-0.23l6.75 -9.79c0.04,-0.07 0.09,-0.17 0.13,-0.24 0.04,-0.07 0.09,-0.17 0.14,-0.24 0.04,-0.07 0.1,-0.16 0.15,-0.22l3.39 -4.7c0.04,-0.07 0.09,-0.17 0.13,-0.24l4.41 -5.88c0.12,-0.19 0.38,-0.53 0.47,-0.63l8.35 -10.39c1,-1.59 2.7,-2.44 3.76,-3.96l0.65 -1.19c1.51,-2.41 4.29,-3.88 5.75,-6.38l3.74 -3.98c2.82,-2.82 17.18,-17.79 19.19,-19.05l2.5 -1.91c1.37,-1.41 2.64,-3.11 4.35,-4.1 0.07,-0.04 0.17,-0.09 0.24,-0.13 0.08,-0.04 0.17,-0.08 0.25,-0.13 1.15,-0.68 2.12,-1.86 3.06,-2.82l3.15 -2.37c0.04,-0.03 0.5,-0.52 0.54,-0.56 0.16,-0.16 0.27,-0.28 0.54,-0.56l7.34 -5.89c0.19,-0.18 0.5,-0.45 0.59,-0.51 0.07,-0.05 0.16,-0.1 0.23,-0.14l9.54 -7c0.07,-0.04 0.16,-0.09 0.23,-0.14l9.33 -6.48c0.07,-0.04 0.17,-0.09 0.23,-0.14 0.07,-0.04 0.16,-0.1 0.22,-0.15l1.98 -1.32c0.07,-0.04 0.16,-0.1 0.22,-0.15 0.02,-0.02 0.41,-0.34 0.61,-0.49l7.88 -4.98c0.46,-0.35 0.25,-0.24 0.62,-0.48l10.05 -5.77c0.08,-0.04 0.17,-0.08 0.25,-0.12l7.35 -4.05c0.07,-0.04 0.17,-0.09 0.24,-0.13l7.35 -4.04c0.29,-0.14 0.53,-0.26 0.74,-0.37l9.32 -4.28c0.08,-0.04 0.17,-0.09 0.24,-0.13l0.49 -0.25c0.08,-0.04 0.17,-0.09 0.24,-0.13l8.59 -3.91c0.07,-0.04 0.17,-0.09 0.24,-0.13l7.6 -3.06c0.08,-0.04 0.18,-0.08 0.25,-0.12l3.42 -1.35c0.08,-0.04 0.18,-0.08 0.25,-0.12l11.78 -4.4c0.09,-0.03 0.18,-0.07 0.27,-0.1l5.26 -1.73c0.09,-0.03 0.19,-0.06 0.28,-0.09l8.82 -2.95c0.09,-0.03 0.18,-0.07 0.27,-0.1l28.55 -7.11c0.85,-0.12 0.53,-0.11 0.89,-0.22 0.09,-0.03 0.17,-0.08 0.26,-0.11 0.09,-0.03 0.17,-0.08 0.26,-0.11 0.09,-0.03 0.18,-0.07 0.27,-0.1l2.13 -0.44c1.82,-0.57 3.3,-0.42 4.94,-0.94 1.13,-0.36 0.73,-0.15 1.93,-0.27 2.05,-0.21 0.96,-0.21 1.74,-0.47 0.94,-0.31 0.76,-0.26 1.94,-0.27l5.81 -0.81c2.17,-0.43 -0.52,-0.12 1.63,-0.57 1.25,-0.27 3.02,0.12 4.27,-0.15 1.15,-0.25 1.95,-0.7 3.75,-0.66 0.68,0.01 1.47,0.07 2.13,-0.08 2.15,-0.46 -0.52,-0.13 1.62,-0.59 1.76,-0.38 4.24,0.28 6.02,-0.23 0.09,-0.03 0.18,-0.07 0.27,-0.1 2.53,-0.86 6.5,0.07 9.08,-0.85l0.52 -0.22c2.24,-0.63 10.51,-0.18 13.09,-0.15 0.55,0 1.69,0.05 2.18,-0.03l1.65 -0.56c1.96,-0.56 12.57,-0.35 13.92,0.1 3.78,1.27 11.93,0.28 16.09,0.45 2.65,0.12 0.12,0.77 8.08,0.74 3.32,-0.01 0.43,0.63 7.73,0.73 1.14,0.01 1.02,-0.02 1.92,0.28 3.01,1.02 3.87,0.06 5.88,0.74 0.78,0.26 -0.43,0.32 1.71,0.49 1.36,0.12 2.96,-0.16 4.17,0.24 1.91,0.64 2.22,0.23 3.85,0.56 1.67,0.34 0.7,0.43 3.75,0.66 2.44,0.18 1.36,0.56 3.31,0.74l8.92 1.74c0.09,0.03 0.18,0.08 0.26,0.11l7.37 1.46c0.09,0.03 0.17,0.08 0.26,0.11l21.24 5.59c0.09,0.03 0.19,0.07 0.27,0.1 0.42,0.15 0.12,0.05 0.54,0.2 0.42,0.15 1.25,0.41 1.66,0.55l8.17 2.49c0.09,0.03 0.19,0.06 0.28,0.09l3.86 1.28c0.09,0.03 0.19,0.07 0.28,0.1 0.36,0.12 0.51,0.14 0.85,0.25l0.55 0.18c0.09,0.04 0.18,0.08 0.26,0.11l10.08 3.89c0.09,0.03 0.19,0.06 0.28,0.08l5.08 1.91c0.08,0.03 0.17,0.08 0.25,0.12l3.68 1.47c0.11,0.05 0.39,0.2 0.49,0.25l16.65 7.6c1.36,0.68 -0.87,-0.43 0.49,0.25l0.98 0.49c1.36,0.68 -0.87,-0.43 0.49,0.25l0.98 0.49c1.36,0.68 -0.87,-0.43 0.49,0.25l0.98 0.49c1.36,0.68 -0.87,-0.43 0.49,0.25l12 6.39c0.08,0.03 0.17,0.08 0.25,0.12l10.55 5.99c0.11,0.05 0.4,0.19 0.5,0.24l5.4 3.42c0.07,0.05 0.16,0.1 0.23,0.14l0.48 0.26c0.07,0.04 0.16,0.09 0.23,0.14 0.07,0.04 0.16,0.1 0.22,0.15l7.63 4.86c0.07,0.04 0.16,0.09 0.23,0.14l5.97 4.33c0.53,0.42 0.12,0.1 0.67,0.43l4.48 3.25c0.53,0.42 0.12,0.1 0.67,0.43 0.41,0.25 0.25,0.1 0.72,0.39 2.28,1.45 3.91,3.25 5.66,4.27l2.45 1.95c1.65,0.97 2.75,2.29 4.4,3.32 1.31,0.83 1.9,1.82 3.68,2.94l4.17 3.54c1.65,0.96 2.94,2.82 4.34,4.12l9.2 8.45c1.15,1.17 2.56,1.77 3.69,2.93l7.54 7.54c0.2,0.2 0.23,0.24 0.55,0.55 1.64,1.6 2.09,2.83 4.6,5.33 2.21,2.21 4.5,4.11 6.14,6.73 0.29,0.46 0.62,0.8 1.02,1.18 2.87,2.83 3.07,3.85 5.16,5.87 1.15,1.11 1.77,2.54 2.93,3.69l9.63 12.06c0.25,0.43 0.08,0.24 0.38,0.72l1.82 2.22c0.05,0.07 0.09,0.17 0.13,0.24 0.04,0.07 0.09,0.17 0.13,0.24 0.04,0.07 0.09,0.16 0.14,0.23 0.04,0.07 0.1,0.16 0.15,0.22l11.52 16.79c0.05,0.06 0.12,0.15 0.16,0.21 0.05,0.07 0.11,0.16 0.15,0.22l0.53 0.94c0.19,0.3 0.76,0.97 0.95,1.25l3.18 5.64c0.39,0.72 0.18,0.34 0.42,0.68l4.12 6.9c0.04,0.08 0.09,0.17 0.12,0.25l0.24 0.49c0.05,0.1 0.19,0.4 0.24,0.5l4.91 9.05c0.04,0.07 0.09,0.17 0.13,0.24 0.13,0.26 0.28,0.56 0.36,0.74l16.92 37.48c0.03,0.09 0.07,0.18 0.11,0.26l0.63 1.21c0.03,0.08 0.09,0.17 0.12,0.25l1.58 4.67c0.04,0.08 0.09,0.17 0.13,0.24l1.04 2.63c0.03,0.09 0.07,0.19 0.1,0.28 0.03,0.09 0.07,0.18 0.1,0.27l3.77 12.04c0.03,0.09 0.07,0.18 0.1,0.27l0.64 1.93c0.14,0.39 0.28,0.91 0.45,1.39l0.3 0.8c0.18,0.58 0.08,0.19 0.21,0.89l3.24 12.57c0.03,0.12 0.16,0.42 0.2,0.53l1.58 6.14c0.21,0.78 0.14,1.08 0.35,1.86l0.82 3.96c0.49,1.61 1.08,2.84 1.21,4.66l1.47 9.56c0.19,2.5 0.68,1.49 0.74,3.68 0.07,2.19 0.55,1.16 0.75,3.67 0.17,2.22 -0.22,1.88 0.47,3.94 0.42,1.26 0.01,2.51 0.84,5.41 0.52,1.85 -0.1,4.35 0.52,6.1 0.84,2.35 -0.1,5.74 0.74,8.09 0.12,0.33 0.06,-0.31 0.3,0.81 0.67,3.1 -0.64,6.64 0.23,9.7l0.56 1.64c0.18,1.23 0.34,32.28 -0.06,34.1 -0.24,1.12 -0.18,0.47 -0.3,0.81l-0.39 1.81c-0.12,2.72 0.53,5.74 -0.05,8.41 -0.46,2.14 -0.13,-0.52 -0.59,1.62 -0.41,1.89 0.27,4.52 -0.15,6.47 -0.46,2.14 -0.13,-0.53 -0.59,1.62 -0.26,1.19 0.05,3.09 -0.06,4.35 -0.18,2.14 -0.23,0.94 -0.49,1.71 -0.4,1.2 -0.05,2.75 -0.33,4.08 -0.45,2.16 -0.14,-0.54 -0.59,1.62 -0.32,1.5 0.19,2.53 -0.33,4.08 -0.5,1.5 -0.27,1.72 -0.51,3.53 -0.14,1.1 -0.1,0.47 -0.23,0.87 -0.03,0.09 -0.09,0.17 -0.12,0.26 -0.45,1.28 -0.18,2.3 -0.44,3.6l-4.17 18.98c-0.67,2.61 0.15,1.24 -1.17,5.08l-3.86 14.52c-0.03,0.09 -0.07,0.19 -0.1,0.27 -0.12,0.35 -0.15,0.5 -0.26,0.85 -0.03,0.09 -0.06,0.19 -0.09,0.28l-0.74 2.2c-0.03,0.09 -0.07,0.18 -0.1,0.27l-0.71 2.97c-0.03,0.09 -0.07,0.18 -0.1,0.27l-5.44 15.51c-0.11,0.35 -0.15,0.5 -0.26,0.85 -0.03,0.09 -0.07,0.19 -0.1,0.27l-2.2 5.9c-0.03,0.09 -0.07,0.18 -0.11,0.26l-0.37 0.73c-0.03,0.08 -0.09,0.16 -0.13,0.24l-1.1 2.95c-0.3,0.97 -0.24,0.79 -0.24,1.96 1.63,0 3.37,-0.26 4.89,0.26 2.6,0.88 13.92,0.66 17.56,0.5 3.19,-0.14 0.52,-0.41 2.93,-0.74 1.71,-0.24 2.89,-0.04 4.28,-0.5l12.51 -2.93c0.39,-0.13 0.65,-0.19 1.13,-0.34l4.49 -1.76c0.08,-0.03 0.17,-0.08 0.25,-0.12l0.97 -0.5c1.08,-0.55 -0.6,0.3 0.49,-0.25l18.84 -11.67c1.64,-1.14 10.06,-9.68 11.18,-11.61 0.33,-0.56 0,-0.14 0.43,-0.68 0.56,-0.72 0.14,-0.19 0.72,-0.74l1.79 -2.25c0.33,-0.57 -0.01,-0.13 0.43,-0.68 0.71,-0.89 0.18,-0.15 0.74,-0.74l5.07 -7.43c0.27,-0.41 0.14,-0.22 0.39,-0.71 0.04,-0.08 0.08,-0.18 0.12,-0.25 0.04,-0.08 0.09,-0.17 0.12,-0.25 0.03,-0.08 0.08,-0.17 0.12,-0.25l1.09 -2.22c0.04,-0.07 0.1,-0.16 0.14,-0.23l2.07 -3.44c0.04,-0.08 0.09,-0.17 0.13,-0.25l0.61 -1.22c0.04,-0.08 0.09,-0.17 0.13,-0.25l1.96 -3.92c0.03,-0.08 0.09,-0.17 0.12,-0.25l0.75 -1.46c0.03,-0.08 0.09,-0.17 0.12,-0.25l1.47 -3.68c0.04,-0.08 0.08,-0.17 0.12,-0.25 0.04,-0.09 0.08,-0.18 0.11,-0.26l8.82 -29.41c0.42,-1.29 0.06,-2.35 0.41,-3.64 0.03,-0.09 0.07,-0.18 0.1,-0.27 0.49,-1.5 0.24,-2.92 0.74,-4.41 0.45,-1.38 0.36,-2.5 0.47,-3.94 0.24,-3.06 0.49,0.15 0.76,-2.92 0.18,-2.12 -0.12,-4.43 0.46,-6.15 0.3,-0.88 0.7,-23 0.18,-25.41 -0.4,-1.88 -0.32,0.29 -0.64,-1.93 -0.25,-1.73 0.15,-3.8 0,-5.51 -0.27,-3.04 -0.36,0.02 -0.74,-2.58 -0.14,-0.95 0.08,-2.33 0,-3.3 -0.26,-3.05 -0.37,0.03 -0.73,-2.58 -0.18,-1.29 0.15,-2.47 -0.28,-3.77l-6.82 -26.99c-0.03,-0.09 -0.07,-0.18 -0.1,-0.27l-1.73 -4.52c-0.03,-0.09 -0.06,-0.19 -0.09,-0.28 -0.03,-0.09 -0.07,-0.18 -0.1,-0.27l-2.01 -5.34c-0.03,-0.1 -0.06,-0.19 -0.09,-0.28l-0.2 -0.54c-0.03,-0.08 -0.08,-0.17 -0.12,-0.25l-1.24 -2.44c-0.03,-0.08 -0.09,-0.17 -0.12,-0.24l-0.49 -0.98c-0.04,-0.08 -0.09,-0.17 -0.13,-0.25 -0.03,-0.08 -0.09,-0.17 -0.12,-0.24l-0.25 -0.49c-0.03,-0.08 -0.09,-0.17 -0.12,-0.24 -0.33,-0.65 0,0 -0.25,-0.49l-0.37 -0.74c-0.03,-0.08 -0.09,-0.17 -0.12,-0.24l-0.25 -0.49c-0.03,-0.08 -0.09,-0.17 -0.12,-0.24l-0.61 -1.23c-0.03,-0.08 -0.09,-0.17 -0.12,-0.24l-2.32 -4.67c-1.17,-2.36 -3.91,-6.06 -5.27,-8.33l-7.36 -9.55c-0.25,-0.42 -0.09,-0.25 -0.38,-0.72 -1.32,-2.11 -4.94,-5.05 -6.72,-6.88l-1.84 -1.47c-1.83,-1.04 -2.63,-2.31 -3.92,-3.07l-0.46 -0.27c-0.09,-0.06 -0.32,-0.26 -0.4,-0.33l-4.03 -2.96c-0.1,-0.06 -0.39,-0.19 -0.49,-0.24l-7.35 -3.68c-0.11,-0.04 -0.42,-0.17 -0.53,-0.21 -1.1,-0.47 -1.71,-1.07 -2.21,-2.21l-5.97 -18.65c-0.03,-0.09 -0.07,-0.18 -0.1,-0.27l-3.69 -9.54c-0.03,-0.09 -0.07,-0.18 -0.1,-0.27 -0.03,-0.09 -0.05,-0.19 -0.08,-0.28 -0.2,-0.63 -0.09,-0.49 -0.33,-1.14l-0.61 -1.23c-0.04,-0.08 -0.09,-0.17 -0.13,-0.24l-1.79 -4.46c-0.22,-0.65 -0.18,-0.78 -0.41,-1.42 -0.04,-0.11 -0.18,-0.41 -0.22,-0.52l-0.63 -1.21c-0.03,-0.08 -0.09,-0.17 -0.12,-0.24l-2.21 -5.15c-0.04,-0.08 -0.09,-0.17 -0.13,-0.24 -0.04,-0.06 -0.37,-0.71 -0.38,-0.73l-5.15 -11.03c-0.31,-0.67 -0.05,0.01 -0.32,-0.79 -0.17,-0.5 -0.15,-0.64 -0.32,-1.15 -0.03,-0.09 -0.06,-0.19 -0.09,-0.27l-2.32 -4.67c-0.03,-0.08 -0.08,-0.17 -0.12,-0.25 -0.23,-0.46 0.06,0.12 -0.25,-0.49l-4.53 -8.33c-0.04,-0.08 -0.09,-0.17 -0.12,-0.25l-4.66 -8.58c-0.03,-0.08 -0.09,-0.17 -0.12,-0.25l-3.18 -5.64c-0.04,-0.07 -0.1,-0.16 -0.14,-0.23 -0.05,-0.07 -0.11,-0.15 -0.15,-0.22l-1.67 -2.74c-0.05,-0.1 -0.2,-0.39 -0.25,-0.48l-1.61 -2.44c0,-0.01 -0.23,-0.5 -0.23,-0.51l-13.22 -19.86c-0.05,-0.07 -0.1,-0.17 -0.14,-0.24 -0.04,-0.07 -0.09,-0.17 -0.13,-0.24l-2.08 -2.69c-0.06,-0.1 -0.2,-0.39 -0.25,-0.49l-0.27 -0.46c-0.33,-0.46 -0.57,-0.6 -0.89,-0.94l-0.92 -1.29c-0.05,-0.07 -0.09,-0.17 -0.13,-0.24l-0.28 -0.45c-0.01,-0.01 -0.63,-0.81 -0.64,-0.82l-8.76 -11.47c-0.8,-1.28 -1.94,-2.09 -2.94,-3.68l-3.42 -3.93c-0.51,-0.89 -0.01,-0.29 -0.72,-1.11 -1.86,-2.16 -1.99,-1.85 -3.21,-3.78l-1.02 -1.19c-0.26,-0.25 -0.44,-0.42 -0.56,-0.54 -1.11,-1.09 -2.19,-2.21 -3.31,-3.3 -0.45,-0.44 -0.36,-0.28 -0.74,-0.73 -1.4,-1.62 -0.85,-1.65 -2.19,-2.96l-31.36 -30.03c-0.07,-0.04 -0.17,-0.1 -0.23,-0.14 -0.09,-0.06 -0.33,-0.26 -0.41,-0.33l-1.82 -1.85c-0.08,-0.08 -0.29,-0.3 -0.36,-0.37 -0.01,-0.01 -0.54,-0.56 -0.54,-0.56 -0.01,-0.01 -0.81,-0.63 -0.82,-0.64l-2.32 -1.72c-0.16,-0.17 -0.28,-0.28 -0.55,-0.56 -0.15,-0.15 -0.68,-0.71 -0.72,-0.75l-5.22 -3.97c-0.07,-0.04 -0.17,-0.09 -0.24,-0.13l-3.19 -2.68c-0.92,-0.52 -0.26,0.02 -1.11,-0.73 -0.74,-0.65 0.02,-0.17 -0.92,-0.92l-0.67 -0.43c-0.07,-0.05 -0.17,-0.09 -0.24,-0.13l-2.94 -2.21c-0.08,-0.04 -0.17,-0.09 -0.25,-0.13l-4.53 -3.56c-0.82,-0.73 -0.23,-0.22 -1.11,-0.74l-2.45 -1.59c-0.07,-0.04 -0.17,-0.09 -0.24,-0.13l-2.69 -2.08c-0.07,-0.05 -0.17,-0.1 -0.24,-0.14l-1.26 -0.94c-0.07,-0.04 -0.17,-0.09 -0.23,-0.13l-0.93 -0.54c-0.02,-0.02 -0.8,-0.63 -0.82,-0.65l-2.21 -1.47c-0.07,-0.04 -0.16,-0.1 -0.22,-0.15l-1.16 -0.67c-0.02,-0.02 -0.41,-0.34 -0.61,-0.49 -0.06,-0.05 -0.15,-0.12 -0.21,-0.16 -0.07,-0.04 -0.16,-0.1 -0.22,-0.15l-3.37 -2.14c-0.06,-0.05 -0.15,-0.11 -0.21,-0.16l-2.54 -1.5c-0.51,-0.26 -0.31,-0.13 -0.72,-0.39l-1.25 -0.95c-0.07,-0.04 -0.17,-0.09 -0.23,-0.14l-6.86 -4.17c-0.08,-0.04 -0.17,-0.08 -0.25,-0.12l-0.96 -0.51c-0.11,-0.07 -0.95,-0.75 -1.03,-0.81l-8.29 -4.57c-0.08,-0.04 -0.17,-0.09 -0.25,-0.12l-10.78 -5.76c-0.78,-0.38 0.58,0.29 -0.49,-0.24l-0.98 -0.49c-0.78,-0.38 0.58,0.29 -0.49,-0.24l-2.45 -1.23c-0.78,-0.38 0.58,0.29 -0.49,-0.24l-19.61 -9.07c-0.1,-0.05 -0.38,-0.2 -0.48,-0.25l-1.49 -0.73c-0.09,-0.03 -0.18,-0.07 -0.27,-0.1l-14.43 -5.79c-0.6,-0.23 -0.76,-0.22 -1.4,-0.43l-2.48 -0.83c-0.09,-0.03 -0.18,-0.07 -0.27,-0.1l-5.88 -2.21c-0.08,-0.04 -0.18,-0.07 -0.26,-0.11l-4.7 -1.55c-0.09,-0.03 -0.19,-0.06 -0.28,-0.09 -0.01,0 -0.56,-0.17 -0.57,-0.17l-6.24 -1.84c-0.09,-0.03 -0.18,-0.07 -0.27,-0.1l-7.08 -2.1c-0.09,-0.03 -0.18,-0.07 -0.27,-0.1l-4.6 -1.28c-0.09,-0.03 -0.18,-0.07 -0.27,-0.1l-4.6 -1.28c-0.09,-0.03 -0.18,-0.08 -0.27,-0.1l-8.57 -2.09c-0.12,-0.04 -0.41,-0.18 -0.52,-0.21l-5.53 -1.09c-0.1,-0.02 -0.19,-0.05 -0.29,-0.07l-0.8 -0.31c-0.89,-0.28 -0.43,-0.22 -1.58,-0.26 -2.02,-0.08 -2.58,-0.45 -4.05,-0.73 -0.12,-0.02 -0.22,-0.02 -0.33,-0.04l-0.88 -0.23c-0.09,-0.03 -0.18,-0.08 -0.26,-0.11 -0.48,-0.16 0.58,-0.11 -1.13,-0.34 -0.58,-0.08 -1.24,0.02 -1.82,-0.03 -2.97,-0.22 0.07,-0.41 -2.95,-0.72 -0.55,-0.06 -0.78,0.02 -1.37,-0.1 -0.11,-0.02 -0.2,-0.05 -0.29,-0.08 -0.1,-0.03 -0.18,-0.07 -0.27,-0.1l-4.93 -0.96c-1.31,-0.44 -3.68,-0.19 -4.89,-0.62 -1.75,-0.62 -2.67,-0.1 -5.66,-0.95 -1.73,-0.49 -3.63,0.1 -5.36,-0.52 -0.34,-0.12 0.32,-0.05 -0.81,-0.29 -1.68,-0.36 -3.43,0.14 -5.08,-0.44 -1.82,-0.65 -5.58,-0.07 -7.7,-0.38 -2.03,-0.3 -0.26,-0.76 -5.9,-0.72l-46.68 -0.74c-1.5,0 -3.22,-0.25 -4.63,0.16l-1.33 0.51c-1.78,0.38 -5.01,-0.19 -6.89,0.09 -2.59,0.38 0.45,0.47 -2.57,0.73 -0.88,0.08 -2.38,-0.01 -3.33,-0.02 -3.89,-0.03 -3.92,0.75 -6.22,0.76 -1.34,0.01 -2.47,-0.1 -3.7,0.34l-0.52 0.22c-1.72,0.49 -3.65,-0.09 -5.36,0.52 -0.37,0.13 0.35,0.05 -0.81,0.3 -1.77,0.37 -2.64,-0.1 -4.59,0.55 -1.3,0.43 -1.63,0.19 -3.07,0.23l-15.78 2.98c-1.74,0.18 0.72,-0.21 -0.66,0.08l-21.41 5.06c-0.11,0.03 -0.21,0.03 -0.32,0.05l-6.28 1.81c-0.09,0.03 -0.18,0.07 -0.27,0.1 -0.1,0.03 -0.19,0.06 -0.28,0.09l-7.3 1.89c-0.09,0.03 -0.18,0.07 -0.27,0.1l-1.09 0.38c-0.09,0.03 -0.19,0.06 -0.28,0.09l-7.98 2.68c-0.35,0.12 -0.5,0.15 -0.85,0.26 -0.09,0.03 -0.19,0.06 -0.28,0.09 -0.09,0.03 -0.19,0.07 -0.27,0.1 0,0 -0.54,0.2 -0.54,0.2l-5.81 1.91c-0.09,0.03 -0.19,0.07 -0.27,0.1l-1.67 0.54c-0.09,0.03 -0.19,0.06 -0.28,0.09 -0.09,0.03 -0.19,0.07 -0.27,0.1l-3.11 1.3c-0.09,0.02 -0.19,0.06 -0.28,0.09 -0.09,0.03 -0.19,0.07 -0.27,0.1 -0.12,0.04 -0.43,0.16 -0.54,0.2l-17.87 7.13c-1.12,0.57 0.64,-0.33 -0.49,0.25 -0.3,0.15 -0.68,0.34 -0.98,0.49l-7.35 3.31c-0.08,0.04 -0.17,0.09 -0.25,0.13 -0.08,0.03 -0.17,0.08 -0.25,0.12 -0.08,0.03 -0.17,0.09 -0.24,0.12l-6.38 2.82c-0.08,0.03 -0.17,0.09 -0.24,0.13 -0.08,0.04 -0.17,0.09 -0.24,0.12l-16.67 8.7c-0.08,0.03 -0.17,0.08 -0.25,0.12 -0.08,0.04 -0.18,0.09 -0.25,0.12l-2.21 1.47c-0.41,0.27 -0.21,0.14 -0.71,0.39 -0.08,0.04 -0.18,0.08 -0.25,0.12 -0.08,0.04 -0.17,0.08 -0.25,0.12 -0.08,0.04 -0.17,0.08 -0.25,0.12l-1.98 0.96c-0.07,0.04 -0.17,0.09 -0.24,0.13l-9.54 5.9c-0.08,0.04 -0.17,0.08 -0.25,0.12l-15.45 9.91c-0.07,0.04 -0.17,0.09 -0.24,0.13 -0.07,0.04 -0.17,0.09 -0.24,0.13 -0.07,0.04 -0.16,0.09 -0.23,0.13 -0.37,0.24 -0.2,0.15 -0.63,0.47l-7.9 5.7c-0.09,0.08 -0.77,0.63 -0.81,0.66l-9.78 7.13c-0.42,0.27 -0.7,0.57 -0.99,0.85l-1.23 0.98c-0.42,0.25 -0.24,0.08 -0.72,0.38 -0.41,0.26 -0.72,0.54 -1,0.83l-2.9 2.25c-0.16,0.11 -0.62,0.54 -0.78,0.69l-2.9 2.25c-1.21,0.84 -2.22,2.34 -3.32,3.29 -0.09,0.07 -0.32,0.27 -0.41,0.33l-0.95 0.52c-1.66,0.97 -2.56,2.75 -4.2,3.89l-1.41 0.8c-0.09,0.06 -0.4,0.33 -0.59,0.5l-7.77 7.31c-0.07,0.04 -0.17,0.09 -0.24,0.13 -0.07,0.04 -0.16,0.1 -0.23,0.14l-2.24 2.18c-2.45,2.46 -12.04,11.43 -13.57,13.63l-7.4 8.04c-1.06,1.08 -1.67,2.45 -3.84,4.61 -2.14,2.13 -2.31,3.1 -3.86,4.6 -0.37,0.36 -0.48,0.46 -0.94,0.9l-1.4 1.91c-0.04,0.07 -0.09,0.17 -0.13,0.24 -0.04,0.07 -0.1,0.16 -0.14,0.23 -0.96,1.38 -2.52,2.44 -3.4,3.94l-2.48 3.41c-0.06,0.09 -0.26,0.32 -0.33,0.41 -0.33,0.37 -0.42,0.4 -0.94,0.9 -0.4,0.39 -0.62,0.58 -0.88,0.96l-5.07 7.07c-0.04,0.07 -0.1,0.16 -0.14,0.22l-2.22 2.93c-0.01,0.01 -0.35,0.41 -0.49,0.61l-3.98 5.58c-0.05,0.07 -0.1,0.17 -0.14,0.23l-4.81 7.33c-0.11,0.16 -0.7,0.91 -0.8,1.04l-9.48 15.15c-0.09,0.17 -0.15,0.33 -0.23,0.5 -0.05,0.1 -0.19,0.4 -0.24,0.49l-2.22 3.67c-0.04,0.08 -0.09,0.17 -0.13,0.24 -0.04,0.08 -0.09,0.17 -0.12,0.25l-7.48 13.48c-0.04,0.08 -0.08,0.17 -0.12,0.25 -0.04,0.08 -0.09,0.17 -0.12,0.25l-1.84 3.68c-0.04,0.08 -0.09,0.17 -0.12,0.25 -0.04,0.08 -0.09,0.17 -0.13,0.24l-4.58 9.39c-0.2,0.62 -0.1,0.51 -0.33,1.14 -0.04,0.11 -0.18,0.41 -0.22,0.51 -0,0.02 -0.34,0.67 -0.38,0.73l-0.61 1.22c-0.05,0.1 -0.2,0.39 -0.25,0.49 -0.04,0.08 -0.09,0.17 -0.12,0.25l-3.57 7.83c-0.31,0.67 -0.05,-0.01 -0.32,0.79l-3.1 7.56c-0.04,0.08 -0.1,0.16 -0.13,0.24l-0.77 2.18c-0.03,0.09 -0.07,0.19 -0.1,0.27 -0.03,0.09 -0.08,0.18 -0.11,0.26 -0.04,0.08 -0.08,0.18 -0.12,0.25 -0.03,0.08 -0.09,0.17 -0.13,0.24l-1.96 5.39c-0.04,0.08 -0.08,0.18 -0.12,0.25l-1.26 3.15c-0.03,0.09 -0.07,0.19 -0.1,0.27l-0.63 1.94c-0.29,0.85 0.1,-0.31 -0.2,0.54l-0.44 1.39c-0.03,0.09 -0.07,0.18 -0.1,0.27l-1.7 4.18c-0.03,0.09 -0.06,0.19 -0.09,0.28l-3.18 10.42c-0.03,0.09 -0.06,0.19 -0.09,0.28l-0.56 2.01z"/>
   <path class="fil0" d="M356.75 491.94c0.06,-2.46 3.95,-4.64 5.28,-6.85l2.54 -3.71c0.04,-0.07 0.09,-0.17 0.14,-0.23 0.04,-0.07 0.09,-0.17 0.13,-0.24l1.95 -3.2c0.05,-0.1 0.19,-0.4 0.24,-0.49l8.03 -22.12c0.39,-1.81 -0.16,-4.13 0.44,-5.81 0.81,-2.26 0.66,-8.23 -0.12,-10.54 -0.55,-1.64 -0.05,-4.72 -0.62,-6.36 -0.12,-0.35 -0.05,0.33 -0.28,-0.82l-1.18 -5.81c-0.03,-0.09 -0.07,-0.18 -0.1,-0.26l-0.45 -1.38c-0.03,-0.09 -0.07,-0.19 -0.1,-0.27 -0.03,-0.09 -0.07,-0.18 -0.1,-0.27l-3.43 -9.07c-0.03,-0.07 -0.09,-0.17 -0.13,-0.24l-4.77 -8.09c-0.05,-0.07 -0.09,-0.17 -0.13,-0.24l-2.6 -3.64c-0.26,-0.38 -0.48,-0.57 -0.88,-0.96 -1.68,-1.61 -1.89,-2.59 -4.97,-5.69 -1.37,-1.38 -3.11,-2.31 -4.41,-3.68l-8.21 -5.76c-0.3,-0.15 -0.52,-0.26 -0.74,-0.37l-2.94 -1.47c-0.08,-0.03 -0.17,-0.09 -0.25,-0.12l-3.18 -1.6c-0.08,-0.04 -0.17,-0.09 -0.24,-0.13l-0.48 -0.25c-0.08,-0.04 -0.17,-0.09 -0.24,-0.13l-0.51 -0.22c-0.09,-0.03 -0.19,-0.07 -0.27,-0.1l-5.81 -1.91c-0.09,-0.03 -0.18,-0.07 -0.27,-0.1l-2.95 -0.72c-0.24,-0.08 0.2,-0.08 -0.83,-0.28 -0.51,-0.1 -0.55,-0.05 -1.02,-0.09 -1.93,-0.18 -0.88,-0.55 -3.29,-0.75 -1.28,-0.11 -2.67,0.21 -3.9,-0.14 -0.09,-0.03 -0.18,-0.07 -0.27,-0.1 -2.1,-0.71 -5.35,-0.69 -7.62,-0.49 -2.88,0.25 0,0.64 -3.27,0.78 -1.3,0.06 -3.08,-0.21 -4.29,0.13l-7.42 1.77c-0.09,0.03 -0.18,0.07 -0.27,0.1l-9.01 3.49c-0.08,0.03 -0.17,0.09 -0.25,0.12 -0.08,0.04 -0.17,0.09 -0.24,0.13l-0.74 0.37c-0.08,0.03 -0.17,0.08 -0.25,0.12l-7.85 4.65c-1.26,0.76 -1.99,1.83 -3.21,2.67l-1.41 0.8c-2.2,1.52 -4.39,4.34 -6.28,6.22l-2.02 2.02c-0.81,1.04 0.44,-0.75 -0.3,0.44l-3.67 5.16c-0.04,0.07 -0.09,0.16 -0.13,0.23l-5.28 9.43c-0.03,0.1 -0.05,0.2 -0.08,0.29 -0.03,0.09 -0.05,0.19 -0.08,0.28 -0.28,0.81 -0,0.11 -0.32,0.79l-0.51 0.96c-0.05,0.11 -0.18,0.4 -0.22,0.51l-1.13 2.92c-0.04,0.08 -0.1,0.16 -0.13,0.24 -0.03,0.08 -0.09,0.17 -0.12,0.25 -0.17,0.42 -0.08,0.03 -0.26,0.84l-0.44 2.14c-0.03,0.09 -0.07,0.18 -0.1,0.27l-2.23 9.53c-0.64,1.93 -0.4,13.57 -0.28,16.32 0.14,3.27 0.54,0.38 0.76,3.28 0.04,0.58 -0.06,1.23 0.03,1.81l1.16 5.09c0.13,0.37 0.29,0.89 0.46,1.38 0.03,0.09 0.07,0.18 0.1,0.27l1.77 5.22c0.15,0.43 0.12,0.47 0.24,0.87 0.03,0.1 0.06,0.19 0.09,0.29l0.82 1.75c0.03,0.08 0.09,0.17 0.12,0.25l1.96 3.92c0.04,0.08 0.09,0.17 0.12,0.25l2.22 4.4c0.05,0.07 0.11,0.15 0.15,0.22l6.03 8.31c0.43,0.55 0.25,0.28 0.53,0.57 2.37,2.4 4.65,5.08 7.48,6.85 1.08,0.68 1.79,1.87 2.95,2.56l6.62 4.04c2.14,1.04 1.65,1.32 4.12,2.13l1.76 0.81c0.01,0.01 0.47,0.24 0.48,0.25l14.21 4.17c2.11,0.68 3.35,0.35 5.8,0.45 2.13,0.09 4.2,1.6 7.44,0.51 1.02,-0.34 -0.72,-0.16 1.38,-0.46 0.49,-0.07 1.64,-0.03 2.19,-0.01l3.57 -0.48c1.16,-0.38 3.03,-0.21 5.82,-1.17l3.77 -1.01c0.09,-0.03 0.18,-0.07 0.27,-0.1l1.66 -0.54c0.08,-0.04 0.18,-0.08 0.25,-0.12 0.08,-0.04 0.17,-0.09 0.24,-0.13 0.18,-0.09 0.7,-0.38 0.71,-0.39l5.65 -2.44c0.08,-0.03 0.17,-0.08 0.25,-0.12 0,0 0.48,-0.24 0.49,-0.25 0.08,-0.03 0.17,-0.08 0.25,-0.12l7.56 -4.56c0.11,-0.08 0.39,-0.33 0.59,-0.52l1.89 -1.41c1.92,-1.12 2.91,-3.19 4.69,-4.5 0.77,-0.57 -0.28,-0.48 1.68,-0.52z"/>
   <path class="fil0" d="M557.47 377.61l-0.52 0.21c-1.54,0.36 -3.39,-0.06 -4.97,0.17l-1.65 0.56c-0.86,0.23 -0.84,0.09 -1.67,0.18 -1.95,0.2 -0.99,0.21 -1.75,0.45 -0.89,0.28 -0.59,0.13 -1.53,0.31l-1.69 0.51c-0.48,0.17 -1,0.32 -1.39,0.45l-5.9 2.2c-0.08,0.03 -0.18,0.07 -0.26,0.11l-5.38 2.7c-0.08,0.04 -0.17,0.09 -0.25,0.12l-7.85 5.38c-0.48,0.31 -0.29,0.13 -0.72,0.38l-1.06 0.78c-0.01,0.01 -0.53,0.55 -0.54,0.56 -0.13,0.14 -0.31,0.32 -0.54,0.55 -3.03,3.06 -6.59,5.86 -8.89,9.49l-3.17 4.19c-0.04,0.07 -0.1,0.16 -0.14,0.23 -0.04,0.07 -0.09,0.17 -0.13,0.24l-2.33 3.92c-0.04,0.08 -0.08,0.17 -0.12,0.25l-3.69 8.08c-0.03,0.09 -0.07,0.18 -0.1,0.27l-1.18 3.6c-0.03,0.09 -0.06,0.19 -0.09,0.28l-0.48 1.36c-0.12,0.36 -0.14,0.48 -0.26,0.84l-0.64 3.4c-0.43,2.18 -0.13,-0.53 -0.56,1.64l-0.83 17.93c0,1.18 -0.11,2.96 -0.01,4.06 0.07,0.75 -0.06,-0.01 0.09,0.65l0.66 2.64c0.1,1.13 -0.05,0.6 0.26,1.59 0.03,0.09 0.08,0.17 0.11,0.26l1.21 5.04c0.02,0.11 0.05,0.2 0.07,0.3l1.56 4.69c0.04,0.08 0.07,0.18 0.11,0.26l1.36 3.41c0.03,0.09 0.07,0.18 0.11,0.26l0.99 1.95c0.14,0.28 0.27,0.53 0.37,0.74l4.58 7.55c0.02,0.03 0.34,0.41 0.49,0.61l4.43 5.86c0.32,0.31 0.36,0.36 0.55,0.55 2.3,2.29 4.73,5.43 7.6,7.11l4.43 3.28c0.45,0.29 0.3,0.15 0.71,0.39l2.44 1.61c0.31,0.2 0.27,0.2 0.63,0.47 0.09,0.07 0.32,0.27 0.41,0.33l4.11 2.14c0.68,0.31 -0.01,0.05 0.79,0.32l4.82 1.79c0.09,0.03 0.19,0.06 0.27,0.1l5.5 1.85c0.92,0.21 0.93,0.08 1.83,0.37l3.69 0.72c2.85,0.92 4.32,0.01 7.14,0.96 1.53,0.52 4.44,0.56 6.1,0 1.51,-0.51 3.67,-0.32 5.42,-0.47 0.74,-0.06 -0.02,0.06 0.64,-0.09l8.26 -2.03c0.44,-0.1 0.56,-0.07 0.96,-0.15 0.11,-0.02 0.21,-0.03 0.32,-0.05 0.1,-0.03 0.2,-0.05 0.3,-0.08l3.95 -1.56c0.11,-0.05 0.4,-0.18 0.51,-0.22l15.68 -8.95c0.07,-0.05 0.17,-0.09 0.24,-0.13l11.59 -11.94c0.82,-1.03 0.27,-0.09 1.09,-1.11 0.83,-1.04 -0.46,0.76 0.3,-0.43 0.31,-0.48 0.14,-0.29 0.39,-0.72l6 -10.55c0.55,-1.09 -0.31,0.59 0.25,-0.49l4.67 -15.18c0.29,-2.82 0.77,-2.1 0.72,-5.53 -0.01,-0.47 -0.05,-1.41 -0.01,-1.84 0.18,-2.14 0.23,-0.94 0.49,-1.71 0.65,-1.96 0.42,-5.42 -0.23,-7.35 -0.68,-2.01 0.15,-4.85 -0.51,-6.84l-2.85 -11.49c-0.03,-0.09 -0.07,-0.19 -0.1,-0.27 -0.03,-0.09 -0.08,-0.18 -0.11,-0.26l-1.47 -3.68c-0.03,-0.08 -0.08,-0.18 -0.12,-0.25 -0.05,-0.11 -0.2,-0.39 -0.25,-0.49l-8.35 -14.44 -4.64 -4.93c-1.69,-2.76 -0.89,-0.74 -4.67,-4.52 -0.36,-0.37 -0.46,-0.46 -0.92,-0.92 -1.41,-1.45 -1.11,-0.97 -2.71,-2.06l-13.27 -7.68c-0.08,-0.04 -0.17,-0.09 -0.24,-0.13l-17.05 -4.27c-3.96,0.09 -3.81,-1.01 -9.58,-0.76l-1.81 0.39z"/>
   <path class="fil0" d="M353.08 608.1l-2.21 0c-0.33,0.91 -0.22,0.44 -0.37,0.74l-2.12 4.86c-0.04,0.12 -0.17,0.41 -0.21,0.53 -0.33,1.11 -0.14,0.79 -0.26,1.95 -0.21,2.06 -0.21,0.95 -0.47,1.74 -0.55,1.65 -0.56,6.72 -0.18,8.5 0.46,2.15 0.14,-0.53 0.57,1.63l2.03 8.26c0.03,0.08 0.09,0.17 0.12,0.25l3.32 6.6c0.05,0.09 0.2,0.4 0.25,0.49l2.32 3.93c0.04,0.07 0.09,0.17 0.13,0.24 0.05,0.07 0.09,0.17 0.13,0.24l3.18 4.17c0.19,0.18 0.26,0.24 0.56,0.54 0.53,0.52 0.13,0.06 0.55,0.55l1.27 2.03c0.43,0.55 0.26,0.28 0.53,0.57 0.01,0.01 0.39,0.36 0.57,0.54 2.17,2.11 5.14,5.85 7.42,7.28l1.4 0.81c0.72,0.56 0.39,0.37 1.09,1.11l16.86 11.08c0.08,0.04 0.17,0.08 0.25,0.12 0.08,0.04 0.17,0.09 0.24,0.12l15.2 6.5c0.09,0.03 0.18,0.07 0.27,0.1l4.05 1.1c0.1,0.03 0.2,0.05 0.29,0.07l6.51 1.95c0.76,0.15 1.27,0.02 2.03,0.17 2.17,0.43 -0.53,0.13 1.64,0.56 0.76,0.15 1.27,0.02 2.03,0.17 2.17,0.44 -0.53,0.13 1.63,0.57 1.5,0.32 2.53,-0.19 4.08,0.33 2.69,0.9 3.92,0.09 6.06,0.55 2.14,0.46 -0.52,0.13 1.62,0.59 0.95,0.21 3.58,0.08 4.71,0.08 3.64,0 8.22,0.68 11.65,-0.48 1.27,-0.43 3.78,-0.17 5.28,-0.23 3.2,-0.14 0.44,-0.68 3.63,-0.78l21.52 -4.95c0.09,-0.03 0.19,-0.06 0.28,-0.09l11.19 -4.61c0.08,-0.04 0.17,-0.09 0.24,-0.13l2.93 -1.49c0.07,-0.04 0.15,-0.11 0.22,-0.15l9.6 -6.21c0.07,-0.04 0.17,-0.08 0.24,-0.13 0.07,-0.04 0.17,-0.09 0.24,-0.13 0.07,-0.04 0.16,-0.1 0.22,-0.14l3.73 -2.9c1.51,-1.49 2.77,-3.13 4.64,-4.18l1.27 -0.93c0.05,-0.06 0.13,-0.13 0.17,-0.19l0.52 -1.69 1.47 0c0.04,-1.96 -0.05,-0.91 0.52,-1.68l4.36 -5.2c0.04,-0.07 0.09,-0.17 0.14,-0.23 0.04,-0.07 0.09,-0.17 0.13,-0.24l0.4 -0.7c0.42,-0.59 0.66,-0.66 1.08,-1.13 1.04,-1.15 0.22,-0.03 0.98,-1.59l1.7 -3.45c1.04,-2.08 0.98,-1.16 1.98,-3.9l2.32 -6.14c0.03,-0.09 0.07,-0.18 0.1,-0.27l1.37 -6.35c0.7,-2.01 0.57,-8.8 0.38,-11.04 -0.21,-2.39 -0.55,-1.59 -0.76,-3.65l-1.19 -3.96c-0.03,-0.09 -0.07,-0.19 -0.1,-0.27l-0.65 -1.92c-0.01,-0.01 -0.31,-0.54 -0.39,-0.71 -0.04,-0.08 -0.1,-0.17 -0.13,-0.24 -0.05,-0.1 -0.19,-0.4 -0.23,-0.51 -0.26,-0.74 -0.22,-0.16 -0.24,-1.23l-1.47 0c-0.45,1.24 -1.1,1.33 -2.21,1.84l-5.39 3.06c-0.21,0.1 -0.45,0.22 -0.74,0.37l-0.98 0.49c0,0 -0.49,0.25 -0.49,0.25 -0.08,0.04 -0.17,0.09 -0.25,0.12 -0.02,0.01 -0.47,0.24 -0.49,0.25 -0.29,0.15 -0.69,0.34 -0.98,0.49 -1.09,0.55 0.59,-0.31 -0.49,0.25l-1.48 0.73c-0.09,0.03 -0.19,0.07 -0.27,0.1l-10.71 3.99c-0.09,0.03 -0.19,0.07 -0.27,0.1 -0.08,0.04 -0.18,0.07 -0.26,0.11l-2.6 1.07c-0.6,0.11 -0.6,0.04 -1.26,0.21 -0.1,0.03 -0.19,0.06 -0.28,0.09l-3 1.04c-0.34,0.12 -0.51,0.15 -0.84,0.26l-1.08 0.39c-0.87,0.26 -0.66,0.13 -1.54,0.3l-0.6 0.13c-0.1,0.03 -0.19,0.07 -0.28,0.09l-12.49 2.95c-0.12,0.03 -0.41,0.18 -0.52,0.21 -1.39,0.44 -1.65,0.1 -3.03,0.28 -2.44,0.32 0.27,0.63 -2.95,0.73 -1.44,0.05 -1.77,-0.2 -3.07,0.24 -2.19,0.74 -3.44,0.17 -5.15,0.74 -2.32,0.78 -4.82,0.15 -7.22,0.5 -2.4,0.35 0.24,0.61 -2.94,0.75 -3.98,0.17 -8.18,-0.39 -12.17,-0.04 -1.78,0.16 -3.21,1.41 -6.08,0.59 -4.47,-1.28 -9.87,-0.16 -14.51,-0.57 -2.45,-0.21 -0.84,-0.81 -6.24,-0.74 -2.57,0.03 -3.31,-0.79 -5.86,-0.76 -2.75,0.03 -2.81,-0.46 -6.26,-0.72 -3.02,-0.23 -0.01,-0.33 -2.61,-0.7 -0.63,-0.09 -1.04,0.01 -1.71,-0.13 -0.11,-0.02 -0.2,-0.05 -0.29,-0.07l-3.95 -0.84c-0.98,-0.31 0.68,-0.14 -1.4,-0.44l-31.2 -9.97c-0.08,-0.03 -0.18,-0.07 -0.26,-0.11l-1.43 -0.41c-0.09,-0.03 -0.19,-0.07 -0.27,-0.1l-3.44 -1.71c-0.21,-0.11 -0.45,-0.22 -0.74,-0.37l-2.72 -1.32c-0.9,-0.47 -1.14,-0.66 -1.45,-1.5z"/>
  </g>
 </g>
</svg>
